<?xml version="1.0" encoding="UTF-8" standalone="no"?>
<svg
   xmlns:dc="http://purl.org/dc/elements/1.1/"
   xmlns:cc="http://creativecommons.org/ns#"
   xmlns:rdf="http://www.w3.org/1999/02/22-rdf-syntax-ns#"
   xmlns:svg="http://www.w3.org/2000/svg"
   xmlns="http://www.w3.org/2000/svg"
   xmlns:sodipodi="http://sodipodi.sourceforge.net/DTD/sodipodi-0.dtd"
   xmlns:inkscape="http://www.inkscape.org/namespaces/inkscape"
   version="1.1"
   id="Layer_1"
   x="0px"
   y="0px"
   viewBox="0 0 100 100"
   xml:space="preserve"
   sodipodi:docname="Discord.svg"
   width="100"
   height="100"
   inkscape:version="1.0.2-2 (e86c870879, 2021-01-15)"><metadata
   id="metadata13"><rdf:RDF><cc:Work
       rdf:about=""><dc:format>image/svg+xml</dc:format><dc:type
         rdf:resource="http://purl.org/dc/dcmitype/StillImage" /><dc:title></dc:title></cc:Work></rdf:RDF></metadata><defs
   id="defs11" /><sodipodi:namedview
   pagecolor="#ffffff"
   bordercolor="#666666"
   borderopacity="1"
   objecttolerance="10"
   gridtolerance="10"
   guidetolerance="10"
   inkscape:pageopacity="0"
   inkscape:pageshadow="2"
   inkscape:window-width="1920"
   inkscape:window-height="1017"
   id="namedview9"
   showgrid="false"
   inkscape:zoom="2.8284271"
   inkscape:cx="5.8665872"
   inkscape:cy="37.068689"
   inkscape:window-x="1912"
   inkscape:window-y="-8"
   inkscape:window-maximized="1"
   inkscape:current-layer="Layer_1" />
<style
   type="text/css"
   id="style2">
	.st0{fill:#7289DA;}
</style>
<path
   class="st0"
   d="m 40.419495,41.983842 c -2.85228,0 -5.104079,2.502017 -5.104079,5.554477 0,3.052462 2.301839,5.554478 5.104079,5.554478 2.852279,0 5.10408,-2.502016 5.10408,-5.554478 0.05004,-3.05246 -2.251801,-5.554477 -5.10408,-5.554477 z m 18.264599,0 c -2.852281,0 -5.104079,2.502017 -5.104079,5.554477 0,3.052462 2.301839,5.554478 5.104079,5.554478 2.852279,0 5.104081,-2.502016 5.104081,-5.554478 0,-3.05246 -2.251802,-5.554477 -5.104081,-5.554477 z"
   id="path4"
   style="stroke-width:0.500402" />
<path
   class="st0"
   d="M 83.053169,0 H 16.05042 C 10.400188,0 5.8,4.6002195 5.8,10.300492 v 67.603231 c 0,5.700273 4.600188,10.300492 10.25042,10.300492 h 56.702327 l -2.650109,-9.250442 6.400264,5.950286 6.050247,5.600267 10.750442,9.500454 V 10.300492 C 93.303591,4.6002195 88.703403,0 83.053169,0 Z M 63.752378,65.303122 c 0,0 -1.800074,-2.150104 -3.300134,-4.050195 6.550267,-1.850089 9.05037,-5.950284 9.05037,-5.950284 -2.050084,1.350064 -4.000165,2.300109 -5.750236,2.950141 -2.500103,1.05005 -4.900201,1.750084 -7.250298,2.150103 -4.800196,0.900042 -9.200376,0.650031 -12.950532,-0.05 -2.850116,-0.550026 -5.300216,-1.350064 -7.350301,-2.150103 -1.150047,-0.45002 -2.400098,-1.000047 -3.650149,-1.700081 -0.150006,-0.1 -0.300013,-0.150007 -0.45002,-0.250011 -0.1,-0.05 -0.150005,-0.1 -0.200007,-0.150008 -0.900037,-0.500024 -1.400057,-0.850041 -1.400057,-0.850041 0,0 2.400097,4.000191 8.750358,5.900283 -1.500061,1.90009 -3.350137,4.150199 -3.350137,4.150199 C 24.85078,64.9531 20.65061,57.702754 20.65061,57.702754 c 0,-16.100771 7.200295,-29.151394 7.200295,-29.151394 7.200295,-5.400257 14.050576,-5.25025 14.050576,-5.25025 l 0.500022,0.600028 c -9.000371,2.600125 -13.150541,6.550312 -13.150541,6.550312 0,0 1.100044,-0.600027 2.950121,-1.450068 5.35022,-2.350113 9.600394,-3.000144 11.350465,-3.15015 0.300014,-0.05001 0.550024,-0.100001 0.850035,-0.100001 3.050127,-0.400018 6.500268,-0.500023 10.100416,-0.1 4.750193,0.550026 9.850404,1.950092 15.050617,4.800228 0,0 -3.950163,-3.750178 -12.450511,-6.350302 l 0.700029,-0.800038 c 0,0 6.850282,-0.150007 14.050577,5.25025 0,0 7.200294,13.050623 7.200294,29.151394 0,0 -4.250174,7.250346 -15.300627,7.600364 z"
   id="path6"
   style="stroke-width:0.500023" />
</svg>
