<svg width="100" height="100" viewBox="0 0 100 100" fill="none" xmlns="http://www.w3.org/2000/svg">
<g clip-path="url(#clip0)">
<path d="M40.4195 41.9838C37.5672 41.9838 35.3154 44.4859 35.3154 47.5383C35.3154 50.5908 37.6173 53.0928 40.4195 53.0928C43.2718 53.0928 45.5236 50.5908 45.5236 47.5383C45.5736 44.4859 43.2718 41.9838 40.4195 41.9838ZM58.6841 41.9838C55.8318 41.9838 53.58 44.4859 53.58 47.5383C53.58 50.5908 55.8819 53.0928 58.6841 53.0928C61.5364 53.0928 63.7882 50.5908 63.7882 47.5383C63.7882 44.4859 61.5364 41.9838 58.6841 41.9838Z" fill="white"/>
<path d="M83.0532 0H16.0504C10.4002 0 5.79999 4.60022 5.79999 10.3005V77.9037C5.79999 83.604 10.4002 88.2042 16.0504 88.2042H72.7527L70.1026 78.9538L76.5029 84.9041L82.5531 90.5043L93.3036 100.005V10.3005C93.3036 4.60022 88.7034 0 83.0532 0ZM63.7524 65.3031C63.7524 65.3031 61.9523 63.153 60.4522 61.2529C67.0025 59.4028 69.5026 55.3026 69.5026 55.3026C67.4525 56.6527 65.5024 57.6028 63.7524 58.2528C61.2523 59.3028 58.8522 60.0029 56.5021 60.4029C51.7019 61.3029 47.3017 61.0529 43.5515 60.3529C40.7014 59.8029 38.2513 59.0028 36.2012 58.2028C35.0512 57.7528 33.8011 57.2027 32.5511 56.5027C32.4011 56.4027 32.2511 56.3527 32.1011 56.2527C32.0011 56.2027 31.9511 56.1527 31.9011 56.1027C31.001 55.6027 30.501 55.2526 30.501 55.2526C30.501 55.2526 32.9011 59.2528 39.2514 61.1529C37.7513 63.053 35.9012 65.3031 35.9012 65.3031C24.8508 64.9531 20.6506 57.7028 20.6506 57.7028C20.6506 41.602 27.8509 28.5514 27.8509 28.5514C35.0512 23.1511 41.9015 23.3011 41.9015 23.3011L42.4015 23.9011C33.4011 26.5013 29.2509 30.4515 29.2509 30.4515C29.2509 30.4515 30.351 29.8514 32.2011 29.0014C37.5513 26.6513 41.8015 26.0012 43.5515 25.8512C43.8516 25.8012 44.1016 25.7512 44.4016 25.7512C47.4517 25.3512 50.9018 25.2512 54.502 25.6512C59.2522 26.2013 64.3524 27.6013 69.5526 30.4515C69.5526 30.4515 65.6024 26.7013 57.1021 24.1012L57.8021 23.3011C57.8021 23.3011 64.6524 23.1511 71.8527 28.5514C71.8527 28.5514 79.053 41.602 79.053 57.7028C79.053 57.7028 74.8028 64.9531 63.7524 65.3031V65.3031Z" fill="white"/>
</g>
<defs>
<clipPath id="clip0">
<rect width="100" height="100" fill="white"/>
</clipPath>
</defs>
</svg>
