<?xml version="1.0" encoding="UTF-8" standalone="no"?>
<svg
   xmlns:dc="http://purl.org/dc/elements/1.1/"
   xmlns:cc="http://creativecommons.org/ns#"
   xmlns:rdf="http://www.w3.org/1999/02/22-rdf-syntax-ns#"
   xmlns:svg="http://www.w3.org/2000/svg"
   xmlns="http://www.w3.org/2000/svg"
   xmlns:sodipodi="http://sodipodi.sourceforge.net/DTD/sodipodi-0.dtd"
   xmlns:inkscape="http://www.inkscape.org/namespaces/inkscape"
   class="octicon octicon-mark-github v-align-middle"
   height="100"
   viewBox="0 0 50 50"
   version="1.1"
   width="100"
   aria-hidden="true"
   id="svg4"
   sodipodi:docname="GithubIcon.svg"
   inkscape:version="1.0.2-2 (e86c870879, 2021-01-15)">
  <metadata
     id="metadata10">
    <rdf:RDF>
      <cc:Work
         rdf:about="">
        <dc:format>image/svg+xml</dc:format>
        <dc:type
           rdf:resource="http://purl.org/dc/dcmitype/StillImage" />
        <dc:title></dc:title>
      </cc:Work>
    </rdf:RDF>
  </metadata>
  <defs
     id="defs8" />
  <sodipodi:namedview
     pagecolor="#ffffff"
     bordercolor="#666666"
     borderopacity="1"
     objecttolerance="10"
     gridtolerance="10"
     guidetolerance="10"
     inkscape:pageopacity="0"
     inkscape:pageshadow="2"
     inkscape:window-width="1920"
     inkscape:window-height="1017"
     id="namedview6"
     showgrid="false"
     inkscape:zoom="6.640625"
     inkscape:cx="68.170006"
     inkscape:cy="46.897077"
     inkscape:window-x="-8"
     inkscape:window-y="-1"
     inkscape:window-maximized="1"
     inkscape:current-layer="svg4"
     inkscape:document-rotation="0" />
  <path
     fill-rule="evenodd"
     d="m 25,0.75 c -13.812501,0 -25,11.187501 -25,25.000001 0,11.0625 7.1562499,20.406251 17.093749,23.718751 1.250001,0.21875 1.718751,-0.531251 1.718751,-1.187501 0,-0.59375 -0.03125,-2.562499 -0.03125,-4.656249 -6.28125,1.15625 -7.906248,-1.53125 -8.406249,-2.937501 -0.28125,-0.71875 -1.5000007,-2.9375 -2.5625007,-3.53125 -0.8750004,-0.468749 -2.1250001,-1.624999 -0.031251,-1.65625 1.9687499,-0.03125 3.3750007,1.8125 3.8437497,2.562501 2.250001,3.781249 5.84375,2.718749 7.28125,2.062499 0.21875,-1.624999 0.875,-2.718749 1.59375,-3.34375 -5.5625,-0.625 -11.3749997,-2.78125 -11.3749997,-12.34375 0,-2.71875 0.9687507,-4.96875 2.5624997,-6.71875 -0.249999,-0.625 -1.124998,-3.1875 0.250001,-6.625 0,0 2.09375,-0.656251 6.875,2.562501 2,-0.562501 4.125,-0.843751 6.249999,-0.843751 2.125001,0 4.250001,0.28125 6.250001,0.843751 4.78125,-3.250001 6.875,-2.562501 6.875,-2.562501 1.375,3.4375 0.499999,6 0.25,6.625 1.59375,1.75 2.562499,3.96875 2.562499,6.71875 0,9.59375 -5.843749,11.71875 -11.406249,12.34375 0.90625,0.781251 1.6875,2.281251 1.6875,4.625 0,3.34375 -0.03125,6.031251 -0.03125,6.875 0,0.65625 0.46875,1.4375 1.71875,1.187501 A 25.040625,25.040625 0 0 0 50,25.750001 C 50,11.937501 38.8125,0.75 25,0.75 Z"
     id="path2"
     style="stroke-width:3.125;fill:#ffffff" />
</svg>
