<?xml version="1.0" encoding="UTF-8" standalone="no"?>
<svg
   xmlns:dc="http://purl.org/dc/elements/1.1/"
   xmlns:cc="http://creativecommons.org/ns#"
   xmlns:rdf="http://www.w3.org/1999/02/22-rdf-syntax-ns#"
   xmlns:svg="http://www.w3.org/2000/svg"
   xmlns="http://www.w3.org/2000/svg"
   xmlns:sodipodi="http://sodipodi.sourceforge.net/DTD/sodipodi-0.dtd"
   xmlns:inkscape="http://www.inkscape.org/namespaces/inkscape"
   version="1.0"
   width="4000px"
   height="4000px"
   viewBox="811 0 4000 4000"
   preserveAspectRatio="xMidYMid meet"
   id="svg917"
   sodipodi:docname="RughNightLogo.svg"
   inkscape:version="1.0.2-2 (e86c870879, 2021-01-15)">
  <metadata
     id="metadata923">
    <rdf:RDF>
      <cc:Work
         rdf:about="">
        <dc:format>image/svg+xml</dc:format>
        <dc:type
           rdf:resource="http://purl.org/dc/dcmitype/StillImage" />
        <dc:title></dc:title>
      </cc:Work>
    </rdf:RDF>
  </metadata>
  <defs
     id="defs921" />
  <sodipodi:namedview
     pagecolor="#5e5e5e"
     bordercolor="#666666"
     borderopacity="1"
     objecttolerance="10"
     gridtolerance="10"
     guidetolerance="10"
     inkscape:pageopacity="0"
     inkscape:pageshadow="2"
     inkscape:window-width="1920"
     inkscape:window-height="1017"
     id="namedview919"
     showgrid="false"
     inkscape:zoom="0.23475426"
     inkscape:cx="1298.2656"
     inkscape:cy="2349.8795"
     inkscape:window-x="-8"
     inkscape:window-y="-1"
     inkscape:window-maximized="1"
     inkscape:current-layer="svg917"
     inkscape:document-rotation="0" />
  <g
     fill="#000000"
     id="g903"
     transform="matrix(1.3232619,0,0,1.3232619,-1174.7419,-386.562)">
    <path
       d="m 2985.5,3296.4 c -241.8,-36.9 -520.5,-156.6 -641,-273.1 -33.7,-33.7 -37.8,-35.3 -48.2,-22.5 -6.4,8 -40.2,32.9 -75.5,55.4 -64.3,41.8 -87.6,62.7 -94,83.5 -3.2,12 -102.8,-114.1 -161.4,-205.6 -89.2,-139.8 -155,-303.6 -178.3,-444.2 -25.7,-159 -11.2,-393.6 35.3,-575.9 8.8,-32.1 12,-56.2 8,-54.6 -12.9,8.8 -85.9,133.3 -108.4,185.5 -12,28.1 -24.1,51.4 -27.3,51.4 -16.9,0 -48.2,-240.2 -48.2,-374.3 0,-260.2 81.9,-506.8 236.9,-714.9 32.9,-43.4 58.6,-80.3 57,-81.9 -1.6,-1.6 -36.9,10.4 -77.9,25.7 -41,15.3 -76.3,26.5 -78.7,24.9 -7.2,-8 94,-129.3 160.6,-192 156.6,-147 348.6,-248.2 588.8,-310 49,-12.9 106,-25.7 127.7,-28.9 20.9,-2.4 39.4,-8 41.8,-11.2 4.8,-8 -24.1,-27.3 -112.4,-73.9 C 2518,322 2518,322 2558.2,320.4 c 165.5,-6.4 366.3,11.2 553.4,49 65.9,13.7 120.5,23.3 122.1,21.7 1.6,-1.6 -8,-20.1 -21.7,-41 -12.9,-21.7 -22.5,-40.2 -20.9,-42.6 7.2,-6.4 204.8,65.1 306.8,110.8 191.2,86.7 354.2,196.8 485.9,328.5 104.4,103.6 175.1,200.8 236.1,325.3 92.4,186.3 118.9,297.2 137.3,569.5 15.3,236.9 27.3,308.4 67.5,414.5 8.8,24.1 15.3,45 12.9,46.6 -11.2,11.2 -108.4,-81.1 -149.4,-140.6 -12.9,-19.3 -12.9,-19.3 -17.7,11.2 -9.6,55.4 -5.6,237.8 5.6,292.4 15.3,71.5 48.2,152.6 87.6,214.5 17.7,28.1 29.7,53 26.5,55.4 -16.1,16.1 -256.2,-33.7 -320.5,-66.7 -20.9,-11.2 -24.1,-10.4 -59.4,18.5 -124.5,101.2 -217.7,286.7 -271.5,540.6 -39.4,181.5 -28.9,167.1 -90.8,123.7 -68.3,-49 -199.2,-152.6 -206.4,-163.1 -20.9,-33.7 -26.5,52.2 -12,167.1 9.6,70.7 24.1,97.2 53.8,97.2 57,0 -41.8,30.5 -158.2,48.2 -72.3,11.2 -254.6,8.8 -339.8,-4.8 z m 86.7,-143.8 C 2865,3014.4 2707.5,2853 2597.5,2667.5 c -30.5,-50.6 -35.3,-56.2 -31.3,-32.9 21.7,103.6 83.5,241 142.2,314.1 20.9,25.7 34.5,47.4 29.7,47.4 -4.8,0 -45,-18.5 -89.2,-41.8 -203.2,-103.6 -376.7,-246.6 -518.9,-426.5 -49.8,-62.7 -49.8,-62.7 -49.8,-32.1 0,16.9 3.2,44.2 7.2,61 4,16.1 4.8,29.7 0.8,29.7 -10.4,0 -84.3,-82.7 -118.1,-132.5 -17.7,-26.5 -45.8,-72.3 -62.7,-100.4 -16.1,-28.9 -27.3,-45 -24.9,-36.1 60.2,238.6 79.5,294.8 134.1,388.8 36.9,64.3 111.6,154.2 161.4,195.2 36.9,29.7 36.9,29.7 13.7,-41 -23.3,-73.1 -39.4,-177.5 -26.5,-177.5 4,0 16.9,14.5 28.9,31.3 67.5,95.6 206.4,218.5 329.3,294 143.8,86.7 351.8,155.8 576.7,191.2 49,8 45.8,2.4 -28.1,-46.6 z m -49.8,-154.2 c -65.1,-133.3 -83.5,-212 -88.4,-373.5 -3.2,-92.4 -1.6,-134.9 4,-134.9 4.8,0 11.2,8 14.5,18.5 11.2,37.8 83.5,190.4 119.7,255.4 41.8,73.9 127.7,197.6 182.3,260.2 34.5,41 34.5,41 35.3,-44.2 0,-132.5 45.8,-261.8 137.3,-392.8 4.8,-7.2 10.4,7.2 38.6,99.6 30.5,101.2 97.2,249 124.5,273.1 15.3,14.5 16.1,13.7 16.1,-5.6 0,-36.1 40.2,-160.6 69.1,-216.9 16.1,-28.9 68.3,-102 117.3,-160.6 143,-171.9 175.9,-224.9 231.3,-364.7 69.9,-175.9 104.4,-358.2 109.2,-577.5 4,-160.6 4,-160.6 -28.1,-40.2 -28.9,110 -73.1,247.4 -89.2,277.1 -6.4,10.4 -7.2,10.4 -10.4,0 -2.4,-6.4 -12,-73.9 -21.7,-150.2 -19.3,-159 -36.9,-228.9 -79.5,-319.7 -28.1,-59.4 -90,-164.7 -76.3,-128.5 104.4,269.9 136.5,533.3 94,775.1 -6.4,37.8 -12.9,75.5 -13.7,84.3 -1.6,8.8 -4.8,21.7 -6.4,28.1 -2.4,6.4 -12.9,37.8 -22.5,68.3 -22.5,67.5 -86.7,208.8 -92.4,203.2 -2.4,-2.4 1.6,-37.8 8,-79.5 7.2,-41.8 14.5,-131.7 16.9,-200 4.8,-124.5 4.8,-124.5 -16.9,-90 -11.2,18.5 -24.1,33.7 -28.1,33.7 -4,0 -8.8,-12 -11.2,-25.7 -28.9,-203.2 -49.8,-285.1 -98,-395.2 -36.1,-81.9 -100.4,-179.9 -159,-243.4 -40.2,-43.4 -44.2,-51.4 -32.1,-55.4 138.2,-44.2 208,-112.4 207.2,-200.8 -0.8,-57 -28.9,-105.2 -74.7,-130.9 -46.6,-25.7 -129.3,-27.3 -192.8,-4.8 -69.9,25.7 -137.3,94.8 -137.3,140.6 0,22.5 -3.2,20.9 -41,-16.9 -73.1,-73.1 -188,-131.7 -355.8,-181.5 -55.4,-16.9 -98,-32.9 -94.8,-35.3 3.2,-3.2 41.8,-19.3 85.9,-35.3 244.2,-90.8 525.3,-106.8 843.4,-48.2 36.9,7.2 -32.9,-24.1 -120.5,-53.8 -117.3,-39.4 -206.4,-55.4 -337.3,-60.2 -143.8,-4.8 -257,8 -420.9,50.6 -59.4,15.3 -111.6,26.5 -115.7,24.9 -11.2,-3.2 71.5,-75.5 134.1,-116.5 45.8,-29.7 112.4,-63.5 253.8,-128.5 20.1,-8.8 20.1,-8.8 0,-5.6 -82.7,15.3 -221.7,49 -269.1,65.9 -177.5,64.3 -357.4,190.4 -477.9,336.5 -51.4,61.8 -51.4,61.8 -24.1,56.2 144.6,-29.7 359,-26.5 483.5,5.6 176.7,46.6 304.4,115.7 430.5,234.5 41.8,40.2 97.2,99.6 122.1,133.3 87.6,118.1 159.8,281.9 194.4,443.4 23.3,110 24.9,339 3.2,459.4 -8,44.2 -17.7,85.1 -20.9,91.6 -3.2,6.4 -8,-20.1 -11.2,-60.2 -8.8,-113.3 -20.9,-187.1 -42.6,-256.2 -23.3,-73.1 -70.7,-172.7 -82.7,-172.7 -4.8,0 -8,25.7 -8,58.6 0,103.6 -32.9,216.1 -90.8,314.9 -63.5,106.8 -96.4,228.1 -97.2,355.8 0,45 -2.4,81.9 -4.8,81.9 -9.6,0 -68.3,-87.6 -89.2,-134.1 -39.4,-84.3 -42.6,-133.3 -20.1,-293.2 11.2,-76.3 22.5,-171.1 24.9,-211.2 5.6,-72.3 5.6,-72.3 -20.9,-28.1 -14.5,24.1 -62.7,93.2 -107.6,152.6 -146.2,194.4 -181.5,272.3 -181.5,401.6 -0.8,139 50.6,249 191.2,405.6 32.9,37.8 61,68.3 61.8,68.3 0.8,0 -17.7,-38.6 -41,-85.9 z m -448.2,-612 c 50.6,-23.3 108.4,-90 120.5,-137.3 4.8,-20.1 4,-20.9 -62.7,-29.7 -92.4,-12.9 -212.9,-53.8 -278.7,-96.4 -74.7,-47.4 -101.2,-40.2 -142.2,41.8 -16.9,32.9 -20.1,47.4 -16.1,84.3 1.6,24.9 11.2,60.2 20.9,78.7 22.5,45 47.4,50.6 89.2,21.7 37.8,-25.7 58.6,-23.3 98.8,12 15.3,12.9 36.1,27.3 46.6,31.3 31.3,12.9 89.2,9.6 123.7,-6.4 z m 193.6,-245.8 c 36.1,-15.3 79.5,-53.8 97.2,-88.4 15.3,-28.9 16.9,-91.6 3.2,-139.8 -8,-27.3 -25.7,-52.2 -77.9,-104.4 -36.9,-37.8 -65.9,-69.9 -63.5,-71.5 4.8,-4.8 116.5,22.5 140.6,34.5 11.2,5.6 33.7,21.7 51.4,35.3 55.4,44.2 94.8,26.5 103.6,-45.8 12,-100.4 109.2,-209.6 188,-210.4 27.3,0 42.6,-29.7 42.6,-80.3 -0.8,-56.2 -8,-69.1 -72.3,-124.5 -103.6,-90 -220.1,-150.2 -350.2,-181.5 -104.4,-24.9 -232.1,-19.3 -316.5,13.7 -72.3,28.9 -142.2,75.5 -212,139.8 -28.1,26.5 -52.2,48.2 -53.8,48.2 -1.6,0 -3.2,-21.7 -2.4,-48.2 0,-26.5 -0.8,-48.2 -0.8,-48.2 -0.8,0 -45.8,56.2 -100.4,124.5 -62.7,78.7 -102,122.1 -106.8,117.3 -15.3,-15.3 -16.9,-186.3 -2.4,-258.6 14.5,-69.1 55.4,-188 90.8,-260.2 19.3,-40.2 19.3,-40.2 -17.7,0 -51.4,55.4 -150.2,204.8 -183.9,277.9 -57,122.9 -121.3,368.7 -96.4,368.7 2.4,0 38.6,-25.7 81.1,-57 41.8,-31.3 77.1,-55.4 78.7,-53.8 1.6,1.6 -13.7,76.3 -32.9,166.3 -19.3,90.8 -35.3,166.3 -35.3,168.7 0,2.4 18.5,-26.5 41.8,-63.5 37.8,-61 98.8,-130.1 173.5,-196 16.1,-14.5 29.7,-36.1 35.3,-57.8 5.6,-19.3 12,-35.3 15.3,-35.3 9.6,0 17.7,99.6 11.2,137.3 -4.8,35.3 -4.8,35.3 10.4,11.2 8.8,-12.9 33.7,-41.8 57,-64.3 55.4,-54.6 53,-88.4 -8.8,-110 -12,-4.8 -22.5,-13.7 -22.5,-20.1 0,-6.4 -12.9,-24.9 -28.1,-40.2 -15.3,-15.3 -28.1,-29.7 -28.1,-32.1 0,-2.4 26.5,-2.4 59.4,0 61.8,4.8 109.2,23.3 136.5,53 10.4,11.2 24.9,16.9 46.6,16.9 16.9,0 30.5,2.4 29.7,6.4 0,3.2 -16.9,16.9 -37.8,30.5 -28.9,19.3 -41,33.7 -53.8,65.9 -12,32.1 -26.5,50.6 -61,77.1 -45.8,36.1 -85.1,81.9 -76.3,90.8 7.2,8 96.4,4 119.7,-4.8 53.8,-20.9 130.1,3.2 158.2,49 23.3,37.8 20.9,46.6 -12.9,46.6 -24.1,0 -36.9,7.2 -68.3,36.1 -20.9,20.1 -46.6,36.9 -57,37.8 -10.4,0 -23.3,1.6 -29.7,1.6 -19.3,1.6 -28.1,42.6 -17.7,77.9 13.7,45 49,81.1 110.8,113.3 128.5,66.7 260.2,85.9 344.6,50.6 z m -575.9,-84.3 c 40.2,-102 47.4,-143.8 28.9,-171.1 -16.9,-26.5 -66.7,-53.8 -96.4,-53.8 -51.4,0 -92.4,47.4 -92.4,107.6 0,43.4 28.9,111.6 65.9,152.6 47.4,54.6 60.2,49.8 94,-35.3 z"
       id="path897" />
    <path
       d="m 3362.2,1294 c -16.1,-17.7 -19.3,-72.3 -6.4,-106 11.2,-28.9 60.2,-69.1 95.6,-78.7 109.2,-30.5 189.6,24.9 155,107.6 -5.6,15.3 -6.4,15.3 -12,1.6 -7.2,-17.7 -47.4,-39.4 -62.7,-32.9 -7.2,2.4 -14.5,13.7 -17.7,25.7 -8,32.9 -34.5,65.1 -68.3,81.9 -39.4,20.1 -65.9,20.1 -83.5,0.8 z"
       id="path899" />
    <path
       d="m 2883.5,1537.3 c -29.7,-16.9 -42.6,-19.3 -72.3,-15.3 -20.1,2.4 -77.1,6.4 -127.7,8.8 -73.9,4 -90,2.4 -86.7,-6.4 1.6,-5.6 8,-9.6 12.9,-8.8 4.8,1.6 8.8,-0.8 8.8,-4.8 0,-4 -16.1,-4.8 -36.1,-2.4 -30.5,3.2 -40.2,0 -64.3,-17.7 -39.4,-30.5 -36.9,-41.8 8.8,-38.6 54.6,4.8 103.6,-12 146.2,-50.6 44.2,-39.4 71.5,-54.6 125.3,-67.5 45.8,-11.2 54.6,-7.2 28.9,13.7 -18.5,15.3 -18.5,15.3 20.9,20.1 69.1,9.6 163.9,32.1 163.9,38.6 0,4 -33.7,8 -73.9,8 -41,0.8 -85.1,3.2 -98.8,6.4 -24.1,4.8 -24.1,4.8 6.4,24.1 32.9,20.1 64.3,57 77.1,91.6 10.4,26.5 7.2,26.5 -39.4,0.8 z"
       id="path901" />
  </g>
  <g
     fill="#ffffff"
     id="g915">
    <path
       d="M3983.9 749.4 c-52.2 -54.6 -52.2 -54.6 2.4 -2.4 29.7 28.1 53.8 53 53.8 53.8 0 6.4 -8 -1.6 -56.2 -51.4z"
       id="path913" />
  </g>
  <rect
     style="fill:#000000;fill-rule:evenodd;fill-opacity:1"
     id="rect929"
     width="153.56711"
     height="152.35793"
     x="3907.7351"
     y="677.1463" />
</svg>
