<svg width="100" height="100" viewBox="0 0 100 100" fill="none" xmlns="http://www.w3.org/2000/svg">
<path d="M50 0C22.3875 0 0 22.3875 0 50C0 77.6125 22.3875 100 50 100C77.6125 100 100 77.6125 100 50C100 22.3875 77.6125 0 50 0ZM50 91.6667C30.2583 91.6667 13.7083 77.8458 9.4375 59.3792L25.0708 65.9542C26.0875 71.1 30.6458 75.0458 36.1958 75C42.35 74.9417 47.2875 69.9542 47.3292 63.825L47.3542 63.8125L60.2167 54.225C68.4458 54.3125 75 47.6792 75 39.6167C75 31.5458 68.45 25 60.3833 25C52.4042 25 45.925 31.3958 45.775 39.3375L36.3458 52.5292C33.9625 52.4792 31.8167 53.1333 29.95 54.3542L8.60417 45.375C10.9167 24.5667 28.5917 8.33333 50 8.33333C72.975 8.33333 91.6667 27.025 91.6667 50C91.6667 72.975 72.975 91.6667 50 91.6667ZM38.5292 57.9542L33.0208 55.6417C34.0583 55.25 35.0708 55.0708 36.0958 55.0708C40.8375 55.0708 44.7375 58.9292 44.7792 63.675C44.8208 68.4792 40.9792 72.4 36.1708 72.4417C32.5583 72.4583 29.4958 70.3042 28.1375 67.2417L33.6542 69.5583C36.8583 70.9042 40.5417 69.3958 41.8917 66.1958C43.2417 62.9958 41.7375 59.3042 38.5292 57.9542V57.9542ZM50.45 39.6167C50.45 34.1375 54.9042 29.6833 60.3833 29.6833C65.8625 29.6833 70.3167 34.1375 70.3167 39.6167C70.3167 45.0917 65.8625 49.5542 60.3833 49.5542C54.9042 49.5542 50.45 45.0958 50.45 39.6167ZM60.3833 47.1208C56.2417 47.1208 52.875 43.7583 52.875 39.6208C52.875 35.4833 56.2417 32.1167 60.3833 32.1167C64.5208 32.1167 67.8833 35.4875 67.8833 39.6208C67.8833 43.7542 64.5208 47.1208 60.3833 47.1208Z" fill="white"/>
</svg>
