<svg width="100" height="100" viewBox="0 0 100 100" fill="none" xmlns="http://www.w3.org/2000/svg">
<path d="M49.969 15C49.969 15 18.7149 15 10.8706 17.0505C6.67041 18.2311 3.21192 21.7103 2.03835 25.9977C4.64405e-05 33.8889 0 50.2311 0 50.2311C0 50.2311 4.64405e-05 66.6353 2.03835 74.4023C3.21192 78.6896 6.60864 82.1067 10.8706 83.2873C18.7767 85.3999 49.969 85.4 49.969 85.4C49.969 85.4 81.2851 85.4 89.1293 83.3495C93.3912 82.1689 96.7879 78.814 97.8997 74.4645C99.9998 66.6353 99.9998 50.2933 99.9998 50.2933C99.9998 50.2933 100.062 33.8889 97.8997 25.9977C96.7879 21.7103 93.3912 18.2933 89.1293 17.1749C81.2851 15.0001 49.969 15 49.969 15V15ZM40.0245 35.1323L66.0286 50.2311L40.0245 65.2677V35.1323V35.1323Z" fill="white"/>
</svg>
